<svg width="1440" height="1024" viewBox="0 0 1440 1024" fill="none" xmlns="http://www.w3.org/2000/svg">
<g clip-path="url(#clip0_3_2)">
<rect width="1440" height="1024" fill="white"/>
<line x1="19.5" y1="520.227" x2="19.5" y2="-0.0245361" stroke="black" stroke-opacity="0.1"/>
<line x1="79.5" y1="520.227" x2="79.5" y2="-0.0245361" stroke="black" stroke-opacity="0.1"/>
<line x1="139.5" y1="520.227" x2="139.5" y2="-0.0245361" stroke="black" stroke-opacity="0.1"/>
<line x1="39.5" y1="520.227" x2="39.5" y2="-0.0245361" stroke="black" stroke-opacity="0.1"/>
<line x1="99.5" y1="520.227" x2="99.5" y2="-0.0245361" stroke="black" stroke-opacity="0.1"/>
<line x1="159.5" y1="520.227" x2="159.5" y2="-0.0245361" stroke="black" stroke-opacity="0.1"/>
<line x1="59.5" y1="520.227" x2="59.5" y2="-0.0245361" stroke="black" stroke-opacity="0.1"/>
<line x1="119.5" y1="520.227" x2="119.5" y2="-0.0245361" stroke="black" stroke-opacity="0.1"/>
<line x1="179.5" y1="520.227" x2="179.5" y2="-0.0245361" stroke="black" stroke-opacity="0.1"/>
<line x1="199.5" y1="520.227" x2="199.5" y2="-0.0245361" stroke="black" stroke-opacity="0.1"/>
<line x1="259.5" y1="520.227" x2="259.5" y2="-0.0245361" stroke="black" stroke-opacity="0.1"/>
<line x1="319.5" y1="520.227" x2="319.5" y2="-0.0245361" stroke="black" stroke-opacity="0.1"/>
<line x1="219.5" y1="520.227" x2="219.5" y2="-0.0245361" stroke="black" stroke-opacity="0.1"/>
<line x1="279.5" y1="520.227" x2="279.5" y2="-0.0245361" stroke="black" stroke-opacity="0.1"/>
<line x1="339.5" y1="520.227" x2="339.5" y2="-0.0245361" stroke="black" stroke-opacity="0.1"/>
<line x1="239.5" y1="520.227" x2="239.5" y2="-0.0245361" stroke="black" stroke-opacity="0.1"/>
<line x1="299.5" y1="520.227" x2="299.5" y2="-0.0245361" stroke="black" stroke-opacity="0.1"/>
<line x1="359.5" y1="520.227" x2="359.5" y2="-0.0245361" stroke="black" stroke-opacity="0.1"/>
<line x1="379.5" y1="520.227" x2="379.5" y2="-0.0245361" stroke="black" stroke-opacity="0.1"/>
<line x1="439.5" y1="520.227" x2="439.5" y2="-0.0245361" stroke="black" stroke-opacity="0.1"/>
<line x1="499.5" y1="520.227" x2="499.5" y2="-0.0245361" stroke="black" stroke-opacity="0.1"/>
<line x1="399.5" y1="520.227" x2="399.5" y2="-0.0245361" stroke="black" stroke-opacity="0.1"/>
<line x1="459.5" y1="520.227" x2="459.5" y2="-0.0245361" stroke="black" stroke-opacity="0.1"/>
<line x1="519.5" y1="520.227" x2="519.5" y2="-0.0245361" stroke="black" stroke-opacity="0.1"/>
<line x1="419.5" y1="520.227" x2="419.5" y2="-0.0245361" stroke="black" stroke-opacity="0.1"/>
<line x1="479.5" y1="520.227" x2="479.5" y2="-0.0245361" stroke="black" stroke-opacity="0.1"/>
<line x1="539.5" y1="520.227" x2="539.5" y2="-0.0245361" stroke="black" stroke-opacity="0.1"/>
<line x1="559.5" y1="520.227" x2="559.5" y2="-0.0245361" stroke="black" stroke-opacity="0.1"/>
<line x1="619.5" y1="520.227" x2="619.5" y2="-0.0245361" stroke="black" stroke-opacity="0.1"/>
<line x1="679.5" y1="520.227" x2="679.5" y2="-0.0245361" stroke="black" stroke-opacity="0.1"/>
<line x1="579.5" y1="520.227" x2="579.5" y2="-0.0245361" stroke="black" stroke-opacity="0.1"/>
<line x1="639.5" y1="520.227" x2="639.5" y2="-0.0245361" stroke="black" stroke-opacity="0.1"/>
<line x1="699.5" y1="520.227" x2="699.5" y2="-0.0245361" stroke="black" stroke-opacity="0.1"/>
<line x1="599.5" y1="520.227" x2="599.5" y2="-0.0245361" stroke="black" stroke-opacity="0.1"/>
<line x1="659.5" y1="520.227" x2="659.5" y2="-0.0245361" stroke="black" stroke-opacity="0.1"/>
<line x1="719.5" y1="520.227" x2="719.5" y2="-0.0245361" stroke="black" stroke-opacity="0.1"/>
<line x1="720" y1="462.173" y2="462.173" stroke="black" stroke-opacity="0.1"/>
<line x1="720" y1="401.715" y2="401.715" stroke="black" stroke-opacity="0.1"/>
<line x1="720" y1="502.31" y2="502.31" stroke="black" stroke-opacity="0.1"/>
<line x1="720" y1="441.851" y2="441.851" stroke="black" stroke-opacity="0.1"/>
<line x1="720" y1="381.9" y2="381.9" stroke="black" stroke-opacity="0.1"/>
<line x1="720" y1="481.988" y2="481.988" stroke="black" stroke-opacity="0.1"/>
<line x1="720" y1="422.037" y2="422.037" stroke="black" stroke-opacity="0.1"/>
<line x1="720" y1="361.578" y2="361.578" stroke="black" stroke-opacity="0.1"/>
<line x1="720" y1="341.764" y2="341.764" stroke="black" stroke-opacity="0.1"/>
<line x1="720" y1="281.305" y2="281.305" stroke="black" stroke-opacity="0.1"/>
<line x1="720" y1="221.354" y2="221.354" stroke="black" stroke-opacity="0.1"/>
<line x1="720" y1="321.441" y2="321.441" stroke="black" stroke-opacity="0.1"/>
<line x1="720" y1="261.49" y2="261.49" stroke="black" stroke-opacity="0.1"/>
<line x1="720" y1="201.031" y2="201.031" stroke="black" stroke-opacity="0.1"/>
<line x1="720" y1="301.627" y2="301.627" stroke="black" stroke-opacity="0.1"/>
<line x1="720" y1="241.168" y2="241.168" stroke="black" stroke-opacity="0.1"/>
<line x1="720" y1="181.217" y2="181.217" stroke="black" stroke-opacity="0.1"/>
<line x1="720" y1="160.895" y2="160.895" stroke="black" stroke-opacity="0.1"/>
<line x1="720" y1="100.944" y2="100.944" stroke="black" stroke-opacity="0.1"/>
<line x1="720" y1="40.485" y2="40.485" stroke="black" stroke-opacity="0.1"/>
<line x1="720" y1="141.081" y2="141.081" stroke="black" stroke-opacity="0.1"/>
<line x1="720" y1="80.6217" y2="80.6217" stroke="black" stroke-opacity="0.1"/>
<line x1="720" y1="20.6708" y2="20.6708" stroke="black" stroke-opacity="0.1"/>
<line x1="720" y1="120.758" y2="120.758" stroke="black" stroke-opacity="0.1"/>
<line x1="720" y1="60.8074" y2="60.8074" stroke="black" stroke-opacity="0.1"/>
<line x1="19.5" y1="1023.98" x2="19.5" y2="520.227" stroke="black" stroke-opacity="0.1"/>
<line x1="79.5" y1="1023.98" x2="79.5" y2="520.227" stroke="black" stroke-opacity="0.1"/>
<line x1="139.5" y1="1023.98" x2="139.5" y2="520.227" stroke="black" stroke-opacity="0.1"/>
<line x1="39.5" y1="1023.98" x2="39.5" y2="520.227" stroke="black" stroke-opacity="0.1"/>
<line x1="99.5" y1="1023.98" x2="99.5" y2="520.227" stroke="black" stroke-opacity="0.1"/>
<line x1="159.5" y1="1023.98" x2="159.5" y2="520.227" stroke="black" stroke-opacity="0.1"/>
<line x1="59.5" y1="1023.98" x2="59.5" y2="520.227" stroke="black" stroke-opacity="0.1"/>
<line x1="119.5" y1="1023.98" x2="119.5" y2="520.227" stroke="black" stroke-opacity="0.1"/>
<line x1="179.5" y1="1023.98" x2="179.5" y2="520.227" stroke="black" stroke-opacity="0.1"/>
<line x1="199.5" y1="1023.98" x2="199.5" y2="520.227" stroke="black" stroke-opacity="0.1"/>
<line x1="259.5" y1="1023.98" x2="259.5" y2="520.227" stroke="black" stroke-opacity="0.1"/>
<line x1="319.5" y1="1023.98" x2="319.5" y2="520.227" stroke="black" stroke-opacity="0.1"/>
<line x1="219.5" y1="1023.98" x2="219.5" y2="520.227" stroke="black" stroke-opacity="0.1"/>
<line x1="279.5" y1="1023.98" x2="279.5" y2="520.227" stroke="black" stroke-opacity="0.1"/>
<line x1="339.5" y1="1023.98" x2="339.5" y2="520.227" stroke="black" stroke-opacity="0.1"/>
<line x1="239.5" y1="1023.98" x2="239.5" y2="520.227" stroke="black" stroke-opacity="0.1"/>
<line x1="299.5" y1="1023.98" x2="299.5" y2="520.227" stroke="black" stroke-opacity="0.1"/>
<line x1="359.5" y1="1023.98" x2="359.5" y2="520.227" stroke="black" stroke-opacity="0.1"/>
<line x1="379.5" y1="1023.98" x2="379.5" y2="520.227" stroke="black" stroke-opacity="0.1"/>
<line x1="439.5" y1="1023.98" x2="439.5" y2="520.227" stroke="black" stroke-opacity="0.1"/>
<line x1="499.5" y1="1023.98" x2="499.5" y2="520.227" stroke="black" stroke-opacity="0.1"/>
<line x1="399.5" y1="1023.98" x2="399.5" y2="520.227" stroke="black" stroke-opacity="0.1"/>
<line x1="459.5" y1="1023.98" x2="459.5" y2="520.227" stroke="black" stroke-opacity="0.1"/>
<line x1="519.5" y1="1023.98" x2="519.5" y2="520.227" stroke="black" stroke-opacity="0.1"/>
<line x1="419.5" y1="1023.98" x2="419.5" y2="520.227" stroke="black" stroke-opacity="0.1"/>
<line x1="479.5" y1="1023.98" x2="479.5" y2="520.227" stroke="black" stroke-opacity="0.1"/>
<line x1="539.5" y1="1023.98" x2="539.5" y2="520.227" stroke="black" stroke-opacity="0.1"/>
<line x1="559.5" y1="1023.98" x2="559.5" y2="520.227" stroke="black" stroke-opacity="0.1"/>
<line x1="619.5" y1="1023.98" x2="619.5" y2="520.227" stroke="black" stroke-opacity="0.1"/>
<line x1="679.5" y1="1023.98" x2="679.5" y2="520.227" stroke="black" stroke-opacity="0.1"/>
<line x1="579.5" y1="1023.98" x2="579.5" y2="520.227" stroke="black" stroke-opacity="0.1"/>
<line x1="639.5" y1="1023.98" x2="639.5" y2="520.227" stroke="black" stroke-opacity="0.1"/>
<line x1="699.5" y1="1023.98" x2="699.5" y2="520.227" stroke="black" stroke-opacity="0.1"/>
<line x1="599.5" y1="1023.98" x2="599.5" y2="520.227" stroke="black" stroke-opacity="0.1"/>
<line x1="659.5" y1="1023.98" x2="659.5" y2="520.227" stroke="black" stroke-opacity="0.1"/>
<line x1="719.5" y1="1023.98" x2="719.5" y2="520.227" stroke="black" stroke-opacity="0.1"/>
<line x1="720" y1="967.168" y2="967.168" stroke="black" stroke-opacity="0.1"/>
<line x1="720" y1="908.627" y2="908.627" stroke="black" stroke-opacity="0.1"/>
<line x1="720" y1="1006.03" y2="1006.03" stroke="black" stroke-opacity="0.1"/>
<line x1="720" y1="947.49" y2="947.49" stroke="black" stroke-opacity="0.1"/>
<line x1="720" y1="889.441" y2="889.441" stroke="black" stroke-opacity="0.1"/>
<line x1="720" y1="986.354" y2="986.354" stroke="black" stroke-opacity="0.1"/>
<line x1="720" y1="928.304" y2="928.304" stroke="black" stroke-opacity="0.1"/>
<line x1="720" y1="869.763" y2="869.763" stroke="black" stroke-opacity="0.1"/>
<line x1="720" y1="850.578" y2="850.578" stroke="black" stroke-opacity="0.1"/>
<line x1="720" y1="792.037" y2="792.037" stroke="black" stroke-opacity="0.1"/>
<line x1="720" y1="733.987" y2="733.987" stroke="black" stroke-opacity="0.1"/>
<line x1="720" y1="830.9" y2="830.9" stroke="black" stroke-opacity="0.1"/>
<line x1="720" y1="772.851" y2="772.851" stroke="black" stroke-opacity="0.1"/>
<line x1="720" y1="714.31" y2="714.31" stroke="black" stroke-opacity="0.1"/>
<line x1="720" y1="811.714" y2="811.714" stroke="black" stroke-opacity="0.1"/>
<line x1="720" y1="753.173" y2="753.173" stroke="black" stroke-opacity="0.1"/>
<line x1="720" y1="695.124" y2="695.124" stroke="black" stroke-opacity="0.1"/>
<line x1="720" y1="675.446" y2="675.446" stroke="black" stroke-opacity="0.1"/>
<line x1="720" y1="617.397" y2="617.397" stroke="black" stroke-opacity="0.1"/>
<line x1="720" y1="558.856" y2="558.856" stroke="black" stroke-opacity="0.1"/>
<line x1="720" y1="656.261" y2="656.261" stroke="black" stroke-opacity="0.1"/>
<line x1="720" y1="597.72" y2="597.72" stroke="black" stroke-opacity="0.1"/>
<line x1="720" y1="539.671" y2="539.671" stroke="black" stroke-opacity="0.1"/>
<line x1="720" y1="636.583" y2="636.583" stroke="black" stroke-opacity="0.1"/>
<line x1="720" y1="578.534" y2="578.534" stroke="black" stroke-opacity="0.1"/>
<line x1="1440" y1="520.475" x2="8.74201e-05" y2="520.727" stroke="black" stroke-opacity="0.1"/>
<line x1="739.5" y1="520.227" x2="739.5" y2="-0.0245361" stroke="black" stroke-opacity="0.1"/>
<line x1="799.5" y1="520.227" x2="799.5" y2="-0.0245361" stroke="black" stroke-opacity="0.1"/>
<line x1="859.5" y1="520.227" x2="859.5" y2="-0.0245361" stroke="black" stroke-opacity="0.1"/>
<line x1="759.5" y1="520.227" x2="759.5" y2="-0.0245361" stroke="black" stroke-opacity="0.1"/>
<line x1="819.5" y1="520.227" x2="819.5" y2="-0.0245361" stroke="black" stroke-opacity="0.1"/>
<line x1="879.5" y1="520.227" x2="879.5" y2="-0.0245361" stroke="black" stroke-opacity="0.1"/>
<line x1="779.5" y1="520.227" x2="779.5" y2="-0.0245361" stroke="black" stroke-opacity="0.1"/>
<line x1="839.5" y1="520.227" x2="839.5" y2="-0.0245361" stroke="black" stroke-opacity="0.1"/>
<line x1="899.5" y1="520.227" x2="899.5" y2="-0.0245361" stroke="black" stroke-opacity="0.1"/>
<line x1="919.5" y1="520.227" x2="919.5" y2="-0.0245361" stroke="black" stroke-opacity="0.1"/>
<line x1="979.5" y1="520.227" x2="979.5" y2="-0.0245361" stroke="black" stroke-opacity="0.1"/>
<line x1="1039.5" y1="520.227" x2="1039.5" y2="-0.0245361" stroke="black" stroke-opacity="0.1"/>
<line x1="939.5" y1="520.227" x2="939.5" y2="-0.0245361" stroke="black" stroke-opacity="0.1"/>
<line x1="999.5" y1="520.227" x2="999.5" y2="-0.0245361" stroke="black" stroke-opacity="0.1"/>
<line x1="1059.5" y1="520.227" x2="1059.5" y2="-0.0245361" stroke="black" stroke-opacity="0.1"/>
<line x1="959.5" y1="520.227" x2="959.5" y2="-0.0245361" stroke="black" stroke-opacity="0.1"/>
<line x1="1019.5" y1="520.227" x2="1019.5" y2="-0.0245361" stroke="black" stroke-opacity="0.1"/>
<line x1="1079.5" y1="520.227" x2="1079.5" y2="-0.0245361" stroke="black" stroke-opacity="0.1"/>
<line x1="1099.5" y1="520.227" x2="1099.5" y2="-0.0245361" stroke="black" stroke-opacity="0.1"/>
<line x1="1159.5" y1="520.227" x2="1159.5" y2="-0.0245361" stroke="black" stroke-opacity="0.1"/>
<line x1="1219.5" y1="520.227" x2="1219.5" y2="-0.0245361" stroke="black" stroke-opacity="0.1"/>
<line x1="1119.5" y1="520.227" x2="1119.5" y2="-0.0245361" stroke="black" stroke-opacity="0.1"/>
<line x1="1179.5" y1="520.227" x2="1179.5" y2="-0.0245361" stroke="black" stroke-opacity="0.1"/>
<line x1="1239.5" y1="520.227" x2="1239.5" y2="-0.0245361" stroke="black" stroke-opacity="0.1"/>
<line x1="1139.5" y1="520.227" x2="1139.5" y2="-0.0245361" stroke="black" stroke-opacity="0.1"/>
<line x1="1199.5" y1="520.227" x2="1199.5" y2="-0.0245361" stroke="black" stroke-opacity="0.1"/>
<line x1="1259.5" y1="520.227" x2="1259.5" y2="-0.0245361" stroke="black" stroke-opacity="0.1"/>
<line x1="1279.5" y1="520.227" x2="1279.5" y2="-0.0245361" stroke="black" stroke-opacity="0.1"/>
<line x1="1339.5" y1="520.227" x2="1339.5" y2="-0.0245361" stroke="black" stroke-opacity="0.1"/>
<line x1="1399.5" y1="520.227" x2="1399.5" y2="-0.0245361" stroke="black" stroke-opacity="0.1"/>
<line x1="1299.5" y1="520.227" x2="1299.5" y2="-0.0245361" stroke="black" stroke-opacity="0.1"/>
<line x1="1359.5" y1="520.227" x2="1359.5" y2="-0.0245361" stroke="black" stroke-opacity="0.1"/>
<line x1="1419.5" y1="520.227" x2="1419.5" y2="-0.0245361" stroke="black" stroke-opacity="0.1"/>
<line x1="1319.5" y1="520.227" x2="1319.5" y2="-0.0245361" stroke="black" stroke-opacity="0.1"/>
<line x1="1379.5" y1="520.227" x2="1379.5" y2="-0.0245361" stroke="black" stroke-opacity="0.1"/>
<line x1="1439.5" y1="520.227" x2="1439.5" y2="-0.0245361" stroke="black" stroke-opacity="0.1"/>
<line x1="1440" y1="462.173" x2="720" y2="462.173" stroke="black" stroke-opacity="0.1"/>
<line x1="1440" y1="401.715" x2="720" y2="401.715" stroke="black" stroke-opacity="0.1"/>
<line x1="1440" y1="502.31" x2="720" y2="502.31" stroke="black" stroke-opacity="0.1"/>
<line x1="1440" y1="441.851" x2="720" y2="441.851" stroke="black" stroke-opacity="0.1"/>
<line x1="1440" y1="381.9" x2="720" y2="381.9" stroke="black" stroke-opacity="0.1"/>
<line x1="1440" y1="481.988" x2="720" y2="481.988" stroke="black" stroke-opacity="0.1"/>
<line x1="1440" y1="422.037" x2="720" y2="422.037" stroke="black" stroke-opacity="0.1"/>
<line x1="1440" y1="361.578" x2="720" y2="361.578" stroke="black" stroke-opacity="0.1"/>
<line x1="1440" y1="341.764" x2="720" y2="341.764" stroke="black" stroke-opacity="0.1"/>
<line x1="1440" y1="281.305" x2="720" y2="281.305" stroke="black" stroke-opacity="0.1"/>
<line x1="1440" y1="221.354" x2="720" y2="221.354" stroke="black" stroke-opacity="0.1"/>
<line x1="1440" y1="321.441" x2="720" y2="321.441" stroke="black" stroke-opacity="0.1"/>
<line x1="1440" y1="261.49" x2="720" y2="261.49" stroke="black" stroke-opacity="0.1"/>
<line x1="1440" y1="201.031" x2="720" y2="201.031" stroke="black" stroke-opacity="0.1"/>
<line x1="1440" y1="301.627" x2="720" y2="301.627" stroke="black" stroke-opacity="0.1"/>
<line x1="1440" y1="241.168" x2="720" y2="241.168" stroke="black" stroke-opacity="0.1"/>
<line x1="1440" y1="181.217" x2="720" y2="181.217" stroke="black" stroke-opacity="0.1"/>
<line x1="1440" y1="160.895" x2="720" y2="160.895" stroke="black" stroke-opacity="0.1"/>
<line x1="1440" y1="100.944" x2="720" y2="100.944" stroke="black" stroke-opacity="0.1"/>
<line x1="1440" y1="40.485" x2="720" y2="40.485" stroke="black" stroke-opacity="0.1"/>
<line x1="1440" y1="141.081" x2="720" y2="141.081" stroke="black" stroke-opacity="0.1"/>
<line x1="1440" y1="80.6217" x2="720" y2="80.6217" stroke="black" stroke-opacity="0.1"/>
<line x1="1440" y1="20.6708" x2="720" y2="20.6708" stroke="black" stroke-opacity="0.1"/>
<line x1="1440" y1="120.758" x2="720" y2="120.758" stroke="black" stroke-opacity="0.1"/>
<line x1="1440" y1="60.8074" x2="720" y2="60.8074" stroke="black" stroke-opacity="0.1"/>
<line x1="739.5" y1="1023.98" x2="739.5" y2="520.227" stroke="black" stroke-opacity="0.1"/>
<line x1="799.5" y1="1023.98" x2="799.5" y2="520.227" stroke="black" stroke-opacity="0.1"/>
<line x1="859.5" y1="1023.98" x2="859.5" y2="520.227" stroke="black" stroke-opacity="0.1"/>
<line x1="759.5" y1="1023.98" x2="759.5" y2="520.227" stroke="black" stroke-opacity="0.1"/>
<line x1="819.5" y1="1023.98" x2="819.5" y2="520.227" stroke="black" stroke-opacity="0.1"/>
<line x1="879.5" y1="1023.98" x2="879.5" y2="520.227" stroke="black" stroke-opacity="0.1"/>
<line x1="779.5" y1="1023.98" x2="779.5" y2="520.227" stroke="black" stroke-opacity="0.1"/>
<line x1="839.5" y1="1023.98" x2="839.5" y2="520.227" stroke="black" stroke-opacity="0.1"/>
<line x1="899.5" y1="1023.98" x2="899.5" y2="520.227" stroke="black" stroke-opacity="0.1"/>
<line x1="919.5" y1="1023.98" x2="919.5" y2="520.227" stroke="black" stroke-opacity="0.1"/>
<line x1="979.5" y1="1023.98" x2="979.5" y2="520.227" stroke="black" stroke-opacity="0.1"/>
<line x1="1039.5" y1="1023.98" x2="1039.5" y2="520.227" stroke="black" stroke-opacity="0.1"/>
<line x1="939.5" y1="1023.98" x2="939.5" y2="520.227" stroke="black" stroke-opacity="0.1"/>
<line x1="999.5" y1="1023.98" x2="999.5" y2="520.227" stroke="black" stroke-opacity="0.1"/>
<line x1="1059.5" y1="1023.98" x2="1059.5" y2="520.227" stroke="black" stroke-opacity="0.1"/>
<line x1="959.5" y1="1023.98" x2="959.5" y2="520.227" stroke="black" stroke-opacity="0.1"/>
<line x1="1019.5" y1="1023.98" x2="1019.5" y2="520.227" stroke="black" stroke-opacity="0.1"/>
<line x1="1079.5" y1="1023.98" x2="1079.5" y2="520.227" stroke="black" stroke-opacity="0.1"/>
<line x1="1099.5" y1="1023.98" x2="1099.5" y2="520.227" stroke="black" stroke-opacity="0.1"/>
<line x1="1159.5" y1="1023.98" x2="1159.5" y2="520.227" stroke="black" stroke-opacity="0.1"/>
<line x1="1219.5" y1="1023.98" x2="1219.5" y2="520.227" stroke="black" stroke-opacity="0.1"/>
<line x1="1119.5" y1="1023.98" x2="1119.5" y2="520.227" stroke="black" stroke-opacity="0.1"/>
<line x1="1179.5" y1="1023.98" x2="1179.5" y2="520.227" stroke="black" stroke-opacity="0.1"/>
<line x1="1239.5" y1="1023.98" x2="1239.5" y2="520.227" stroke="black" stroke-opacity="0.1"/>
<line x1="1139.5" y1="1023.98" x2="1139.5" y2="520.227" stroke="black" stroke-opacity="0.1"/>
<line x1="1199.5" y1="1023.98" x2="1199.5" y2="520.227" stroke="black" stroke-opacity="0.1"/>
<line x1="1259.5" y1="1023.98" x2="1259.5" y2="520.227" stroke="black" stroke-opacity="0.1"/>
<line x1="1279.5" y1="1023.98" x2="1279.5" y2="520.227" stroke="black" stroke-opacity="0.1"/>
<line x1="1339.5" y1="1023.98" x2="1339.5" y2="520.227" stroke="black" stroke-opacity="0.1"/>
<line x1="1399.5" y1="1023.98" x2="1399.5" y2="520.227" stroke="black" stroke-opacity="0.1"/>
<line x1="1299.5" y1="1023.98" x2="1299.5" y2="520.227" stroke="black" stroke-opacity="0.1"/>
<line x1="1359.5" y1="1023.98" x2="1359.5" y2="520.227" stroke="black" stroke-opacity="0.1"/>
<line x1="1419.5" y1="1023.98" x2="1419.5" y2="520.227" stroke="black" stroke-opacity="0.1"/>
<line x1="1319.5" y1="1023.98" x2="1319.5" y2="520.227" stroke="black" stroke-opacity="0.1"/>
<line x1="1379.5" y1="1023.98" x2="1379.5" y2="520.227" stroke="black" stroke-opacity="0.1"/>
<line x1="1439.5" y1="1023.98" x2="1439.5" y2="520.227" stroke="black" stroke-opacity="0.1"/>
<line x1="1440" y1="967.168" x2="720" y2="967.168" stroke="black" stroke-opacity="0.1"/>
<line x1="1440" y1="908.627" x2="720" y2="908.627" stroke="black" stroke-opacity="0.1"/>
<line x1="1440" y1="1006.03" x2="720" y2="1006.03" stroke="black" stroke-opacity="0.1"/>
<line x1="1440" y1="947.49" x2="720" y2="947.49" stroke="black" stroke-opacity="0.1"/>
<line x1="1440" y1="889.441" x2="720" y2="889.441" stroke="black" stroke-opacity="0.1"/>
<line x1="1440" y1="986.354" x2="720" y2="986.354" stroke="black" stroke-opacity="0.1"/>
<line x1="1440" y1="928.304" x2="720" y2="928.304" stroke="black" stroke-opacity="0.1"/>
<line x1="1440" y1="869.763" x2="720" y2="869.763" stroke="black" stroke-opacity="0.1"/>
<line x1="1440" y1="850.578" x2="720" y2="850.578" stroke="black" stroke-opacity="0.1"/>
<line x1="1440" y1="792.037" x2="720" y2="792.037" stroke="black" stroke-opacity="0.1"/>
<line x1="1440" y1="733.987" x2="720" y2="733.987" stroke="black" stroke-opacity="0.1"/>
<line x1="1440" y1="830.9" x2="720" y2="830.9" stroke="black" stroke-opacity="0.1"/>
<line x1="1440" y1="772.851" x2="720" y2="772.851" stroke="black" stroke-opacity="0.1"/>
<line x1="1440" y1="714.31" x2="720" y2="714.31" stroke="black" stroke-opacity="0.1"/>
<line x1="1440" y1="811.714" x2="720" y2="811.714" stroke="black" stroke-opacity="0.1"/>
<line x1="1440" y1="753.173" x2="720" y2="753.173" stroke="black" stroke-opacity="0.1"/>
<line x1="1440" y1="695.124" x2="720" y2="695.124" stroke="black" stroke-opacity="0.1"/>
<line x1="1440" y1="675.446" x2="720" y2="675.446" stroke="black" stroke-opacity="0.1"/>
<line x1="1440" y1="617.397" x2="720" y2="617.397" stroke="black" stroke-opacity="0.1"/>
<line x1="1440" y1="558.856" x2="720" y2="558.856" stroke="black" stroke-opacity="0.1"/>
<line x1="1440" y1="656.261" x2="720" y2="656.261" stroke="black" stroke-opacity="0.1"/>
<line x1="1440" y1="597.72" x2="720" y2="597.72" stroke="black" stroke-opacity="0.1"/>
<line x1="1440" y1="539.671" x2="720" y2="539.671" stroke="black" stroke-opacity="0.1"/>
<line x1="1440" y1="636.583" x2="720" y2="636.583" stroke="black" stroke-opacity="0.1"/>
<line x1="1440" y1="578.534" x2="720" y2="578.534" stroke="black" stroke-opacity="0.1"/>
</g>
<defs>
<clipPath id="clip0_3_2">
<rect width="1440" height="1024" fill="white"/>
</clipPath>
</defs>
</svg>
